<svg version="1.1" xmlns="http://www.w3.org/2000/svg" xmlns:xlink="http://www.w3.org/1999/xlink" x="0px" y="0px" width="30px"
	 height="30px" viewBox="0 0 30 30" enable-background="new 0 0 30 30" xml:space="preserve">
<g id="caret-arrow-up">
	<g display="inline">
		<circle fill="none" stroke="#333333" stroke-miterlimit="10" cx="14.831" cy="14.719" r="11.115"/>
		<polyline fill="none" stroke="#333333" stroke-linecap="round" stroke-linejoin="round" stroke-miterlimit="10" points="
			9.806,16.459 14.993,12.087 20.125,16.459 		"/>
	</g>
</g>
<g id="check">
	<g display="inline">
		<circle fill="none" stroke="#333333" stroke-miterlimit="10" cx="14.724" cy="14.724" r="11.12"/>
		<polyline fill="none" stroke="#333333" stroke-linecap="round" stroke-linejoin="round" stroke-miterlimit="10" points="
			20.741,10.669 13.974,18.862 9.342,14.745 		"/>
	</g>
</g>
<g id="cancel">
	<g display="inline">
		<circle fill="none" stroke="#333333" stroke-miterlimit="10" cx="14.76" cy="14.76" r="11.099"/>
	</g>
	<g display="inline">
		
			<line fill="none" stroke="#333333" stroke-linecap="round" stroke-linejoin="round" stroke-miterlimit="10" x1="18.865" y1="11.046" x2="10.177" y2="19.104"/>
		
			<line fill="none" stroke="#333333" stroke-linecap="round" stroke-linejoin="round" stroke-miterlimit="10" x1="10.177" y1="11.046" x2="18.865" y2="19.104"/>
	</g>
</g>
<g id="download">
	<g display="inline">
		<g>
			
				<line fill="none" stroke="#333333" stroke-linecap="round" stroke-linejoin="round" stroke-miterlimit="10" x1="14.5" y1="14" x2="14.5" y2="27"/>
		</g>
		<path fill="none" stroke="#333333" stroke-linecap="round" stroke-linejoin="round" stroke-miterlimit="10" d="M18,20.5h2.885
			h2.848c1.592,0,3-0.674,3.874-2.07c0.373-0.711,0.586-1.426,0.586-2.286c0-2.706-2.094-4.871-4.75-5.07
			c0.007-0.133,0.02-0.242,0.02-0.376c0-0.409-0.043-0.795-0.111-1.183c-0.565-3.225-3.373-5.671-6.76-5.671
			c-2.589,0-4.841,1.435-6.013,3.547c-3.069-0.917-4.29,1.868-4.29,1.868S6.212,9.279,6.175,9.292
			c-2.594,0.643-4.521,2.789-4.521,5.582c0,2.853,2.007,4.626,4.685,5.626H6.64h2.235h1.768H11"/>
		<polyline fill="none" stroke="#333333" stroke-linecap="round" stroke-linejoin="round" stroke-miterlimit="10" points="
			18.405,24.304 14.361,27.983 10.343,24.285 		"/>
	</g>
</g>
<g id="pause">
	<g display="inline">
		
			<rect x="6.5" y="6.5" fill="#FFFFFF" stroke="#333333" stroke-linecap="round" stroke-linejoin="round" stroke-miterlimit="10" width="6" height="17"/>
		
			<rect x="16.5" y="6.5" fill="#FFFFFF" stroke="#333333" stroke-linecap="round" stroke-linejoin="round" stroke-miterlimit="10" width="6" height="17"/>
	</g>
</g>
<g id="play">
	
		<polygon display="inline" fill="#FFFFFF" stroke="#333333" stroke-linecap="round" stroke-linejoin="round" stroke-miterlimit="10" points="
		8.5,27.011 23.512,15.065 8.5,2.994 	"/>
</g>
<g id="favorite">
	
		<path display="inline" fill="#FFFFFF" stroke="#333333" stroke-linecap="round" stroke-linejoin="round" stroke-miterlimit="10" d="
		M27.358,12.291c-0.018-0.055-0.029-0.11-0.041-0.166L19.192,10.5l-4.085-7.212c-0.014,0-0.025,0.003-0.039,0.003
		c-0.068,0-0.127-0.013-0.191-0.019l-4.194,7.162l-8.017,1.688c-0.007,0.066-0.014,0.131-0.024,0.196l5.488,6.232l-0.831,7.955
		c0.086,0.068,0.166,0.141,0.238,0.223L15,23.461l7.392,3.248c0.089-0.062,0.184-0.121,0.288-0.172l-0.87-8.117L27.358,12.291z"/>
</g>
<g id="heart">
	<g display="inline">
		<path fill="#FFFFFF" stroke="#333333" stroke-linecap="round" stroke-linejoin="round" stroke-miterlimit="10" d="M27.255,11.313
			c-0.145-2.152-0.644-3.907-2.413-5.278C23.7,5.15,22.28,4.646,20.832,4.646c-2.539,0-4.727,1.591-5.769,3.729
			C14.02,6.237,11.832,4.59,9.293,4.59c-2.756,0-5.511,1.96-6.228,4.661c-1.022,3.849,0.316,7.735,2.922,10.603
			c2.041,2.246,4.653,3.969,7.375,5.278c0.231,0.111,1.258,0.77,1.527,0.673C14.897,25.802,27.908,21.115,27.255,11.313z"/>
	</g>
</g>
<g id="camera">
	<g display="inline">
		<polyline fill="#FFFFFF" stroke="#333333" stroke-linecap="round" stroke-linejoin="round" stroke-miterlimit="10" points="
			7.364,8.122 6.541,6.325 3.771,6.325 2.873,8.122 		"/>
		<path fill="#FFFFFF" stroke="#333333" stroke-linecap="round" stroke-linejoin="round" stroke-miterlimit="10" d="M9.505,8.122
			l1.455-3.22c0.069-0.032,0.146-0.058,0.21-0.093h9.336c0.054,0.023,0.103,0.05,0.16,0.07l1.19,3.242h2.134h4.785
			c0.048,0.05,0.097,0.095,0.148,0.14v16.859c-0.024,0.023-0.05,0.045-0.073,0.069H1.216c-0.046-0.039-0.09-0.075-0.14-0.11V8.422
			c0.088-0.094,0.167-0.193,0.238-0.3h1.559h4.492h1.573H9.505z"/>
		
			<circle fill="#FFFFFF" stroke="#333333" stroke-linecap="round" stroke-linejoin="round" stroke-miterlimit="10" cx="15.584" cy="16.303" r="5.479"/>
		
			<circle fill="#FFFFFF" stroke="#333333" stroke-linecap="round" stroke-linejoin="round" stroke-miterlimit="10" cx="25.03" cy="10.815" r="0.225"/>
	</g>
</g>
<g id="search">
	<g display="inline">
		<circle fill="none" stroke="#333333" stroke-linecap="round" stroke-miterlimit="10" cx="12.981" cy="12.753" r="7.314"/>
		<line fill="none" stroke="#333333" stroke-linecap="round" stroke-miterlimit="10" x1="18.21" y1="17.863" x2="24.73" y2="24.5"/>
	</g>
</g>
<g id="menu">
	<g display="inline">
		<line fill="none" stroke="#333333" stroke-linecap="round" stroke-miterlimit="10" x1="3" y1="5.5" x2="27" y2="5.5"/>
		<line fill="none" stroke="#333333" stroke-linecap="round" stroke-miterlimit="10" x1="3" y1="15.5" x2="27" y2="15.5"/>
		<line fill="none" stroke="#333333" stroke-linecap="round" stroke-miterlimit="10" x1="3" y1="24.5" x2="27" y2="24.5"/>
	</g>
</g>
<g id="safety">
	<g display="inline">
		<path fill="#FFFFFF" stroke="#333333" stroke-linecap="round" stroke-linejoin="round" stroke-miterlimit="10" d="M26.645,23.342
			L15.531,5.093c-0.183-0.3-0.521-0.474-0.871-0.45l-0.039,0.004c-0.301,0.021-0.576,0.188-0.734,0.445L2.64,23.371
			c-0.153,0.249-0.182,0.554-0.078,0.827l0.01,0.361c0.139,0.365,0.487,0.94,0.879,0.94h22.366c0.386,0,0.736-0.573,0.877-0.932
			l0.022-0.227C26.822,24.069,26.796,23.592,26.645,23.342z"/>
		<rect x="10.609" y="11.832" fill="none" width="8.627" height="14.668"/>
		<text transform="matrix(1 0 0 1 13.0376 21.8457)" fill="#333333" font-family="'OpenSans-Bold'" font-size="13.1755">!</text>
	</g>
</g>
<g id="settings">
	<g display="inline">
		<path fill="none" stroke="#333333" stroke-linecap="round" stroke-linejoin="round" stroke-miterlimit="10" d="M25.646,12.871
			h-2.204c-0.209-0.836-0.488-1.604-0.907-2.302l1.572-1.57c-0.004-0.071-0.005-0.14-0.002-0.21L21.297,5.98
			c-0.101-0.003-0.195-0.013-0.285-0.029l-1.547,1.548c-0.697-0.418-1.466-0.767-2.302-0.977V4.31
			c-0.062-0.049-0.117-0.103-0.169-0.159h-4.053c-0.032,0.035-0.068,0.066-0.104,0.099v2.204c-0.835,0.209-1.604,0.558-2.302,0.976
			L8.925,5.887C8.888,5.882,8.851,5.876,8.817,5.868L5.834,8.851c0,0.027-0.003,0.055-0.005,0.082l1.636,1.637
			c-0.418,0.697-0.697,1.466-0.907,2.302H4.219c-0.033,0.033-0.068,0.066-0.104,0.098v4.109c0.044,0.039,0.087,0.077,0.126,0.119
			h2.386c0.209,0.769,0.558,1.534,0.977,2.164l-1.713,1.713c-0.005,0.06-0.008,0.121-0.02,0.181l2.989,2.991l1.812-1.815
			c0.699,0.35,1.396,0.697,2.164,0.837v2.331c0.085,0.077,0.16,0.159,0.228,0.251h3.986c0.034-0.043,0.074-0.081,0.113-0.121v-2.461
			c0.769-0.209,1.466-0.487,2.163-0.837l1.703,1.702c0.019-0.001,0.031-0.004,0.051-0.004c0.057,0,0.106,0.012,0.16,0.016
			l2.859-2.859c-0.002-0.072,0.005-0.142,0.01-0.211l-1.712-1.713c0.418-0.698,0.696-1.396,0.976-2.164h2.325
			c0.057-0.057,0.118-0.108,0.187-0.156v-3.944C25.796,13.029,25.718,12.954,25.646,12.871z"/>
		
			<circle fill="none" stroke="#333333" stroke-linecap="round" stroke-linejoin="round" stroke-miterlimit="10" cx="14.913" cy="15.018" r="3.655"/>
	</g>
</g>
<g id="profile">
	<g id="icon_x5F_user_1_" display="inline">
		<g>
			<path fill="#FFFFFF" stroke="#333333" stroke-linecap="round" stroke-linejoin="round" stroke-miterlimit="10" d="M15.001,4.151
				c3.353,0,6.085,2.732,6.085,6.086c0,3.353-2.732,6.21-6.085,6.21c-3.354,0-6.087-2.732-6.087-6.086
				C8.914,7.007,11.647,4.151,15.001,4.151z M5.188,25.849c0,0,2.733-6.956,9.316-6.956h0.993c6.708,0,9.316,6.956,9.316,6.956
				H5.188z"/>
		</g>
	</g>
</g>
<g id="edit">
	<g display="inline">
		<path fill="#FFFFFF" stroke="#333333" stroke-linecap="round" stroke-linejoin="round" stroke-miterlimit="10" d="M25.688,25.688
			l-1.543-4.656L11.688,8.575l-0.771,0.77l-2.342,2.343l12.457,12.456L25.688,25.688z M6.498,9.613l3.115-3.114L8.071,4.958
			c-0.86-0.86-2.253-0.86-3.114,0c-0.86,0.858-0.86,2.255,0,3.114L6.498,9.613z"/>
	</g>
</g>
<g id="location">
	<g display="inline">
		<path fill="#FFFFFF" stroke="#333333" stroke-linecap="round" stroke-linejoin="round" stroke-miterlimit="10" d="M15,15.608
			c2.348,0,4.258-1.91,4.258-4.258S17.348,7.094,15,7.094c-2.348,0-4.257,1.909-4.257,4.257S12.652,15.608,15,15.608z M15,3.826
			c4.151,0,7.526,3.375,7.526,7.524c0,0.276-0.02,0.57-0.068,0.951c-0.584,5.483-5.732,11.917-7.39,13.872
			c-1.7-1.959-6.922-8.377-7.526-13.886c-0.044-0.36-0.065-0.657-0.065-0.938C7.475,7.201,10.85,3.826,15,3.826z"/>
	</g>
</g>
<g id="book">
	<g display="inline">
		<path fill="#FFFFFF" stroke="#333333" stroke-linecap="round" stroke-linejoin="round" stroke-miterlimit="10" d="M3.094,23.584
			V5.177c0-0.597,0.486-1.083,1.083-1.083h9.741C14.516,4.095,15,4.58,15,5.177v18.407c0,0.597-0.484,1.082-1.083,1.082H4.176
			C3.58,24.666,3.094,24.181,3.094,23.584z"/>
		<path fill="#FFFFFF" stroke="#333333" stroke-linecap="round" stroke-linejoin="round" stroke-miterlimit="10" d="M15,23.584
			V5.177c0-0.597,0.485-1.083,1.082-1.083h9.741c0.598,0,1.083,0.485,1.083,1.083v18.407c0,0.597-0.485,1.082-1.083,1.082h-9.741
			C15.485,24.666,15,24.181,15,23.584z"/>
		<path fill="none" stroke="#333333" stroke-linecap="square" stroke-linejoin="round" stroke-miterlimit="10" d="M16.953,24.666
			h-0.871c-0.597,0-1.082,0.485-1.082,1.084v-2.839"/>
		<path fill="none" stroke="#333333" stroke-linecap="square" stroke-linejoin="round" stroke-miterlimit="10" d="M12.86,24.666
			h1.058c0.598,0,1.083,0.485,1.083,1.084v0.155"/>
	</g>
</g>
<g id="snack">
	<g display="inline">
		<g>
			
				<line fill="#FFFFFF" stroke="#333333" stroke-linecap="round" stroke-linejoin="round" stroke-miterlimit="10" x1="18.971" y1="2.653" x2="18.851" y2="26.202"/>
			<path fill="#FFFFFF" stroke="#333333" stroke-linecap="round" stroke-linejoin="round" stroke-miterlimit="10" d="M22.033,8.735
				l-5.862,0.188c-0.632,0.02-1.229-0.381-1.256-0.859l-0.146-2.596c-0.027-0.479,0.525-0.883,1.157-0.904l5.863-0.188l1.875,2.123
				L22.033,8.735z"/>
			<path fill="#FFFFFF" stroke="#333333" stroke-linecap="round" stroke-linejoin="round" stroke-miterlimit="10" d="M16.116,9.9
				l5.296,0.009c0.569,0.002,1.088,0.381,1.086,0.813l-0.008,2.344c-0.002,0.432-0.521,0.781-1.092,0.78l-5.296-0.01l-1.576-1.971
				L16.116,9.9z"/>
		</g>
		<g>
			
				<line fill="#FFFFFF" stroke="#333333" stroke-linecap="round" stroke-linejoin="round" stroke-miterlimit="10" x1="7.8" y1="10.141" x2="21.108" y2="26.557"/>
			<path fill="#FFFFFF" stroke="#333333" stroke-linecap="round" stroke-linejoin="round" stroke-miterlimit="10" d="M13.385,12.621
				l-3.962,3.465c-0.428,0.374-1.07,0.435-1.361,0.118l-1.577-1.719c-0.291-0.316-0.138-0.912,0.289-1.285l3.962-3.465l2.509,0.407
				L13.385,12.621z"/>
			<path fill="#FFFFFF" stroke="#333333" stroke-linecap="round" stroke-linejoin="round" stroke-miterlimit="10" d="M10.071,16.926
				l3.681-3.004c0.397-0.323,0.972-0.354,1.216-0.053l1.329,1.632c0.244,0.299,0.082,0.837-0.315,1.161L12.3,19.666l-2.216-0.472
				L10.071,16.926z"/>
		</g>
	</g>
</g>
<g id="home">
	
		<path display="inline" fill="#FFFFFF" stroke="#333333" stroke-linecap="round" stroke-linejoin="round" stroke-miterlimit="10" d="
		M5.977,13.496v12.031h7.018V18.51h4.011v7.018h7.018V13.496L15,4.473L5.977,13.496z"/>
</g>
<g id="sound">
	<g id="icon_x5F_vol_1_" display="inline">
		<path fill="#FFFFFF" stroke="#333333" stroke-linecap="round" stroke-linejoin="round" stroke-miterlimit="10" d="M3.316,10.487
			v9.025h7.413l6.124,6.124V4.364l-6.124,6.123H3.316z"/>
		<path fill="none" stroke="#333333" stroke-linecap="round" stroke-linejoin="round" stroke-miterlimit="10" d="M23.622,5.895
			c1.934,2.578,3.062,5.721,3.062,9.105c0,3.384-1.128,6.606-3.062,9.105"/>
		<path fill="none" stroke="#333333" stroke-linecap="round" stroke-linejoin="round" stroke-miterlimit="10" d="M20.272,9.038
			c1.209,1.611,1.935,3.706,1.935,5.881c0,2.176-0.726,4.271-1.935,5.882"/>
	</g>
	
		<path display="inline" fill="#FFFFFF" stroke="#333333" stroke-linecap="round" stroke-linejoin="round" stroke-miterlimit="10" d="
		M15,15"/>
</g>
<g id="blur">
	<g display="inline">
		<path fill="#FFFFFF" stroke="#333333" stroke-linecap="round" stroke-linejoin="round" stroke-miterlimit="10" d="M15.001,26.174
			c-4.151,0-7.526-3.375-7.526-7.524c0-0.276,0.02-0.57,0.068-0.951c0.584-5.483,5.732-11.917,7.39-13.872
			c1.7,1.959,6.922,8.377,7.526,13.886c0.044,0.36,0.065,0.657,0.065,0.938C22.525,22.799,19.15,26.174,15.001,26.174z"/>
	</g>
	<g display="inline">
		<path fill="#333333" stroke="#333333" stroke-linecap="round" stroke-linejoin="round" stroke-miterlimit="10" d="M20.244,17.905
			c-0.003,1.944-0.992,3.84-2.775,4.915c-1.79,1.078-3.938,1.062-5.661,0.147L20.244,17.905z"/>
	</g>
</g>
<g id="images">
	<g display="inline">
		
			<rect x="6.5" y="4.5" fill="#FFFFFF" stroke="#333333" stroke-linecap="round" stroke-linejoin="round" stroke-miterlimit="10" width="19" height="18"/>
		<g>
			
				<rect x="4.5" y="7.5" fill="#FFFFFF" stroke="#FFFFFF" stroke-linecap="round" stroke-linejoin="round" stroke-miterlimit="10" width="18" height="17"/>
			
				<rect x="3.5" y="8.5" fill="#FFFFFF" stroke="#333333" stroke-linecap="round" stroke-linejoin="round" stroke-miterlimit="10" width="18" height="17"/>
		</g>
	</g>
</g>
</svg>
