<?xml version="1.0" encoding="utf-8"?>
<!-- Generator: Adobe Illustrator 15.1.0, SVG Export Plug-In . SVG Version: 6.00 Build 0)  -->
<!DOCTYPE svg PUBLIC "-//W3C//DTD SVG 1.1//EN" "http://www.w3.org/Graphics/SVG/1.1/DTD/svg11.dtd">
<svg version="1.1" id="Layer_1" xmlns="http://www.w3.org/2000/svg" xmlns:xlink="http://www.w3.org/1999/xlink" x="0px" y="0px"
	 width="330.081px" height="664.228px" viewBox="0 0 330.081 664.228" enable-background="new 0 0 330.081 664.228"
	 xml:space="preserve">
<g>
	<path fill="none" stroke="#999999" stroke-width="2" stroke-miterlimit="10" d="M9.098,105.179c0,0-1.126,0-2.5,0s-2.5-1.35-2.5-3
		v-22c0-1.65,1.125-3,2.5-3s2.5,0,2.5,0"/>
</g>
<g>
	<path fill="none" stroke="#999999" stroke-width="2" stroke-miterlimit="10" d="M9.098,186.179c0,0-1.125,0-2.5,0s-2.5-1.35-2.5-3
		v-44c0-1.65,1.125-3,2.5-3s2.5,0,2.5,0"/>
</g>
<g>
	<path fill="none" stroke="#999999" stroke-width="2" stroke-miterlimit="10" d="M9.098,247.179c0,0-1.125,0-2.5,0s-2.5-1.35-2.5-3
		v-45c0-1.65,1.125-3,2.5-3s2.5,0,2.5,0"/>
</g>
<g>
	<path fill="none" stroke="#999999" stroke-width="2" stroke-miterlimit="10" d="M319.098,187.179h4c1.65,0,3-1.35,3-3v-45
		c0-1.65-1.35-3-3-3h-4"/>
</g>
<g>
	<path fill="#FFFFFF" d="M320.098,620.179c0,22.092-17.908,40-40,40h-231c-22.091,0-40-17.908-40-40v-575c0-22.091,17.909-40,40-40
		h231c22.092,0,40,17.909,40,40V620.179z"/>
	<path fill="none" stroke="#999999" stroke-width="2" stroke-miterlimit="10" d="M320.098,620.179c0,22.092-17.908,40-40,40h-231
		c-22.091,0-40-17.908-40-40v-575c0-22.091,17.909-40,40-40h231c22.092,0,40,17.909,40,40V620.179z"/>
</g>
<g>
	<path fill="none" stroke="#999999" stroke-width="2" stroke-miterlimit="10" d="M309.098,581.179c0,1.657-1.343,3-3,3h-283
		c-1.657,0-3-1.343-3-3v-507c0-1.657,1.343-3,3-3h283c1.657,0,3,1.343,3,3V581.179z"/>
</g>
<circle fill="none" stroke="#A6D1B5" stroke-width="4" stroke-miterlimit="10" cx="168.231" cy="620.786" r="24.083"/>
<circle fill="#E8E8E8" stroke="#999999" stroke-width="2" stroke-miterlimit="10" cx="113.06" cy="39.487" r="5.87"/>
<g>
	<path fill="#E8E8E8" d="M191.098,39.179c0,1.65-1.35,3-3,3h-47c-1.65,0-3-1.35-3-3l0,0c0-1.65,1.35-3,3-3h47
		C189.748,36.179,191.098,37.529,191.098,39.179L191.098,39.179z"/>
	<path fill="none" stroke="#999999" stroke-width="2" stroke-miterlimit="10" d="M191.098,39.179c0,1.65-1.35,3-3,3h-47
		c-1.65,0-3-1.35-3-3l0,0c0-1.65,1.35-3,3-3h47C189.748,36.179,191.098,37.529,191.098,39.179L191.098,39.179z"/>
</g>
<circle fill="#E8E8E8" stroke="#999999" stroke-width="2" stroke-miterlimit="10" cx="164.998" cy="16.482" r="3.515"/>
</svg>
